<svg width="1384" height="1240" viewBox="0 0 1384 1240" fill="none" xmlns="http://www.w3.org/2000/svg">
  <g id="favicon" clip-path="url(#clip0_1_2)">
    <g id="center_icon">
      <g id="gear">
        <path id="Vector" d="M756.693 433.711L719.868 497.494L783.651 534.319L820.476 470.536L756.693 433.711Z" fill="#F5BC00" />
        <path id="Vector_2" d="M627.146 433.713L563.363 470.538L600.188 534.321L663.971 497.496L627.146 433.713Z" fill="#F5BC00" />
        <path id="Vector_3" d="M572.24 582.72H498.59V656.37H572.24V582.72Z" fill="#F5BC00" />
        <path id="Vector_4" d="M600.188 704.764L563.363 768.547L627.146 805.372L663.971 741.589L600.188 704.764Z" fill="#F5BC00" />
        <path id="Vector_5" d="M783.644 704.759L719.861 741.584L756.686 805.367L820.469 768.542L783.644 704.759Z" fill="#F5BC00" />
        <path id="Vector_6" d="M885.24 582.72H811.59V656.37H885.24V582.72Z" fill="#F5BC00" />
        <path id="Vector_7" d="M691.92 453.83C909.74 457.55 909.7 781.56 691.92 785.25C474.1 781.53 474.13 457.52 691.92 453.83Z" fill="#F5BC00" />
      </g>
      <g id="center_part">
        <path id="Vector_8" d="M710.33 557.84C743.06 566.96 762.75 602.75 754.59 634.46L803.42 662.65C831.74 594.65 784.54 511.14 710.33 501.37V557.84Z" fill="#EB7900" />
        <path id="Vector_9" d="M736.18 666.35C712.8 689.27 671.95 690.12 647.69 666.35L598.8 694.57C644.37 753.96 740.29 753.06 785.02 694.57L736.18 666.35Z" fill="#EB7900" />
        <path id="Vector_10" d="M629.29 634.44C620.5 603.28 642.14 565.83 673.51 557.85V501.34C601.42 509.18 551.1 596.34 580.35 662.7L629.29 634.44Z" fill="#EB7900" />
        <path id="Vector_11" d="M691.92 591.92C728.22 592.54 728.22 646.54 691.92 647.16C655.61 646.54 655.62 592.54 691.92 591.92Z" fill="#FADB00" />
      </g>
    </g>
    <g id="atom">
      <path id="Vector_12" d="M1363.77 619.54C1374.46 287.38 9.19999 287.44 20.06 619.54C9.36999 951.7 1374.64 951.64 1363.77 619.54Z" stroke="#F5BC00" stroke-width="40" stroke-miterlimit="10" />
      <path id="Vector_13" d="M1027.85 1201.38C1320.85 1044.56 638.16 -137.76 356 37.72C63 194.52 745.67 1376.85 1027.85 1201.38Z" stroke="#F5BC00" stroke-width="40" stroke-miterlimit="10" />
      <path id="Vector_14" d="M356 1201.38C638.32 1376.72 1320.9 194.38 1027.83 37.68C745.53 -137.64 63 1044.75 356 1201.38Z" stroke="#F5BC00" stroke-width="40" stroke-miterlimit="10" />
    </g>
    <g id="dots">
      <path id="Vector_15" d="M272.56 619.54C271.39 688.12 168.08 688.11 166.92 619.54C168.09 551 271.4 551 272.56 619.54Z" fill="#EB7900" />
      <path id="Vector_16" d="M1216.92 619.54C1215.74 688.12 1112.44 688.11 1111.27 619.54C1112.45 551 1215.75 551 1216.92 619.54Z" fill="#EB7900" />
      <path id="Vector_17" d="M482.24 260.81C421.99 294.06 369.62 206.13 429.42 170.44C489.67 137.19 542 225.12 482.24 260.81Z" fill="#EB7900" />
      <path id="Vector_18" d="M954.42 1068.64C894.17 1101.89 841.8 1013.97 901.6 978.27C961.85 945 1014.22 1033 954.42 1068.64Z" fill="#EB7900" />
      <path id="Vector_19" d="M901.59 260.81C841.79 225.1 894.18 137.19 954.42 170.44C1014.22 206.15 961.83 294.06 901.59 260.81Z" fill="#EB7900" />
      <path id="Vector_20" d="M429.42 1068.64C369.61 1032.93 422 945 482.24 978.27C542 1014 489.65 1101.9 429.42 1068.64Z" fill="#EB7900" />
    </g>
  </g>
  <defs>
    <clipPath id="clip0_1_2">
      <rect width="1383.84" height="1239.09" fill="white" />
    </clipPath>
  </defs>
</svg>