<svg xmlns="http://www.w3.org/2000/svg" viewBox="0 0 1383.84 1239.09"><defs><style>.cls-1{fill:#f5bc00;}.cls-2{fill:#eb7900;}.cls-3{fill:#fadb00;}.cls-4{fill:none;stroke:#f5bc00;stroke-miterlimit:10;stroke-width:40px;}</style></defs><g id="Layer_2" data-name="Layer 2"><g id="Layer_1-2" data-name="Layer 1"><rect class="cls-1" x="733.34" y="447.19" width="73.65" height="73.65" transform="translate(-34.08 908.99) rotate(-60)"/><rect class="cls-1" x="576.84" y="447.19" width="73.65" height="73.65" transform="translate(-159.79 371.68) rotate(-30)"/><rect class="cls-1" x="498.59" y="582.72" width="73.65" height="73.65"/><rect class="cls-1" x="576.84" y="718.25" width="73.65" height="73.65" transform="translate(-347.08 908.98) rotate(-60)"/><rect class="cls-1" x="733.34" y="718.24" width="73.65" height="73.65" transform="translate(-274.35 486.24) rotate(-30)"/><rect class="cls-1" x="811.59" y="582.72" width="73.65" height="73.65"/><path class="cls-1" d="M691.92,453.83c217.82,3.72,217.78,327.73,0,331.42C474.1,781.53,474.13,457.52,691.92,453.83Z"/><path class="cls-2" d="M710.33,557.84c32.73,9.12,52.42,44.91,44.26,76.62l48.83,28.19c28.32-68-18.88-151.51-93.09-161.28Z"/><path class="cls-2" d="M736.18,666.35c-23.38,22.92-64.23,23.77-88.49,0L598.8,694.57c45.57,59.39,141.49,58.49,186.22,0Z"/><path class="cls-2" d="M629.29,634.44c-8.79-31.16,12.85-68.61,44.22-76.59V501.34c-72.09,7.84-122.41,95-93.16,161.36Z"/><path class="cls-3" d="M691.92,591.92c36.3.62,36.3,54.62,0,55.24C655.61,646.54,655.62,592.54,691.92,591.92Z"/><path class="cls-4" d="M1363.77,619.54c10.69-332.16-1354.57-332.1-1343.71,0C9.37,951.7,1374.64,951.64,1363.77,619.54Z"/><path class="cls-4" d="M1027.85,1201.38C1320.85,1044.56,638.16-137.76,356,37.72,63,194.52,745.67,1376.85,1027.85,1201.38Z"/><path class="cls-4" d="M356,1201.38c282.32,175.34,964.9-1007,671.83-1163.7C745.53-137.64,63,1044.75,356,1201.38Z"/><path class="cls-2" d="M272.56,619.54c-1.17,68.58-104.48,68.57-105.64,0C168.09,551,271.4,551,272.56,619.54Z"/><path class="cls-2" d="M1216.92,619.54c-1.18,68.58-104.48,68.57-105.65,0C1112.45,551,1215.75,551,1216.92,619.54Z"/><path class="cls-2" d="M482.24,260.81c-60.25,33.25-112.62-54.68-52.82-90.37C489.67,137.19,542,225.12,482.24,260.81Z"/><path class="cls-2" d="M954.42,1068.64c-60.25,33.25-112.62-54.67-52.82-90.37C961.85,945,1014.22,1033,954.42,1068.64Z"/><path class="cls-2" d="M901.59,260.81c-59.8-35.71-7.41-123.62,52.83-90.37C1014.22,206.15,961.83,294.06,901.59,260.81Z"/><path class="cls-2" d="M429.42,1068.64C369.61,1032.93,422,945,482.24,978.27,542,1014,489.65,1101.9,429.42,1068.64Z"/></g></g></svg>